<?xml version="1.0" encoding="UTF-8" standalone="no"?>
<!DOCTYPE svg PUBLIC "-//W3C//DTD SVG 1.1//EN"
 "http://www.w3.org/Graphics/SVG/1.1/DTD/svg11.dtd">
<!-- Generated by graphviz version 2.50.0 (0)
 -->
<!-- Pages: 1 -->
<svg width="833pt" height="52pt"
 viewBox="0.00 0.00 833.00 52.00" xmlns="http://www.w3.org/2000/svg" xmlns:xlink="http://www.w3.org/1999/xlink">
<g id="graph0" class="graph" transform="scale(1 1) rotate(0) translate(4 48)">
<polygon fill="white" stroke="transparent" points="-4,4 -4,-48 829,-48 829,4 -4,4"/>
<!-- 4248752 -->
<g id="node1" class="node">
<title>4248752</title>
<polygon fill="none" stroke="black" points="8.5,-4 8.5,-40 36.5,-40 36.5,-4 8.5,-4"/>
<polygon fill="none" stroke="black" points="36.5,-4 36.5,-40 64.5,-40 64.5,-4 36.5,-4"/>
<text text-anchor="start" x="45.5" y="-18.3" font-family="Times,serif" font-size="14.00">0</text>
<polygon fill="none" stroke="black" points="64.5,-4 64.5,-40 92.5,-40 92.5,-4 64.5,-4"/>
<text text-anchor="start" x="73.5" y="-18.3" font-family="Times,serif" font-size="14.00">1</text>
<polygon fill="none" stroke="black" points="92.5,-4 92.5,-40 135.5,-40 135.5,-4 92.5,-4"/>
<text text-anchor="start" x="95.5" y="-18.3" font-family="Times,serif" font-size="14.00">Used</text>
<polygon fill="none" stroke="black" points="135.5,-4 135.5,-40 163.5,-40 163.5,-4 135.5,-4"/>
</g>
<!-- 4248800 -->
<g id="node2" class="node">
<title>4248800</title>
<polygon fill="none" stroke="black" points="215,-4 215,-40 243,-40 243,-4 215,-4"/>
<polygon fill="none" stroke="black" points="243,-4 243,-40 271,-40 271,-4 243,-4"/>
<text text-anchor="start" x="252" y="-18.3" font-family="Times,serif" font-size="14.00">1</text>
<polygon fill="none" stroke="black" points="271,-4 271,-40 305,-40 305,-4 271,-4"/>
<text text-anchor="start" x="274" y="-18.3" font-family="Times,serif" font-size="14.00">127</text>
<polygon fill="none" stroke="black" points="305,-4 305,-40 345,-40 345,-4 305,-4"/>
<text text-anchor="start" x="308" y="-18.3" font-family="Times,serif" font-size="14.00">Free</text>
<polygon fill="none" stroke="black" points="345,-4 345,-40 373,-40 373,-4 345,-4"/>
</g>
<!-- 4248752&#45;&gt;4248800 -->
<g id="edge1" class="edge">
<title>4248752:next&#45;&gt;4248800</title>
<path fill="none" stroke="black" d="M164.5,-22C175,-22 185.99,-22 196.93,-22"/>
<polygon fill="black" stroke="black" points="196.94,-25.5 206.94,-22 196.94,-18.5 196.94,-25.5"/>
</g>
<!-- 4248800&#45;&gt;4248752 -->
<g id="edge2" class="edge">
<title>4248800:prev&#45;&gt;4248752</title>
<path fill="none" stroke="black" d="M214,-22C203.41,-22 192.32,-22 181.29,-22"/>
<polygon fill="black" stroke="black" points="181.2,-18.5 171.2,-22 181.2,-25.5 181.2,-18.5"/>
</g>
<!-- 4248848 -->
<g id="node3" class="node">
<title>4248848</title>
<polygon fill="none" stroke="black" points="425.5,-4 425.5,-40 453.5,-40 453.5,-4 425.5,-4"/>
<polygon fill="none" stroke="black" points="453.5,-4 453.5,-40 487.5,-40 487.5,-4 453.5,-4"/>
<text text-anchor="start" x="456.5" y="-18.3" font-family="Times,serif" font-size="14.00">128</text>
<polygon fill="none" stroke="black" points="487.5,-4 487.5,-40 521.5,-40 521.5,-4 487.5,-4"/>
<text text-anchor="start" x="490.5" y="-18.3" font-family="Times,serif" font-size="14.00">128</text>
<polygon fill="none" stroke="black" points="521.5,-4 521.5,-40 564.5,-40 564.5,-4 521.5,-4"/>
<text text-anchor="start" x="524.5" y="-18.3" font-family="Times,serif" font-size="14.00">Used</text>
<polygon fill="none" stroke="black" points="564.5,-4 564.5,-40 592.5,-40 592.5,-4 564.5,-4"/>
</g>
<!-- 4248800&#45;&gt;4248848 -->
<g id="edge3" class="edge">
<title>4248800:next&#45;&gt;4248848</title>
<path fill="none" stroke="black" d="M374,-22C384.56,-22 395.59,-22 406.58,-22"/>
<polygon fill="black" stroke="black" points="406.66,-25.5 416.66,-22 406.66,-18.5 406.66,-25.5"/>
</g>
<!-- 4248848&#45;&gt;4248800 -->
<g id="edge4" class="edge">
<title>4248848:prev&#45;&gt;4248800</title>
<path fill="none" stroke="black" d="M424.5,-22C413.74,-22 402.48,-22 391.28,-22"/>
<polygon fill="black" stroke="black" points="391.03,-18.5 381.03,-22 391.03,-25.5 391.03,-18.5"/>
</g>
<!-- 4248944 -->
<g id="node4" class="node">
<title>4248944</title>
<polygon fill="none" stroke="black" points="644.5,-4 644.5,-40 672.5,-40 672.5,-4 644.5,-4"/>
<polygon fill="none" stroke="black" points="672.5,-4 672.5,-40 706.5,-40 706.5,-4 672.5,-4"/>
<text text-anchor="start" x="675.5" y="-18.3" font-family="Times,serif" font-size="14.00">256</text>
<polygon fill="none" stroke="black" points="706.5,-4 706.5,-40 749.5,-40 749.5,-4 706.5,-4"/>
<text text-anchor="start" x="709.5" y="-18.3" font-family="Times,serif" font-size="14.00">7936</text>
<polygon fill="none" stroke="black" points="749.5,-4 749.5,-40 789.5,-40 789.5,-4 749.5,-4"/>
<text text-anchor="start" x="752.5" y="-18.3" font-family="Times,serif" font-size="14.00">Free</text>
<polygon fill="none" stroke="black" points="789.5,-4 789.5,-40 817.5,-40 817.5,-4 789.5,-4"/>
</g>
<!-- 4248848&#45;&gt;4248944 -->
<g id="edge5" class="edge">
<title>4248848:next&#45;&gt;4248944</title>
<path fill="none" stroke="black" d="M593.5,-22C603.98,-22 614.92,-22 625.85,-22"/>
<polygon fill="black" stroke="black" points="625.86,-25.5 635.86,-22 625.86,-18.5 625.86,-25.5"/>
</g>
<!-- 4248944&#45;&gt;4248848 -->
<g id="edge6" class="edge">
<title>4248944:prev&#45;&gt;4248848</title>
<path fill="none" stroke="black" d="M643.5,-22C632.81,-22 621.65,-22 610.52,-22"/>
<polygon fill="black" stroke="black" points="610.32,-18.5 600.32,-22 610.32,-25.5 610.32,-18.5"/>
</g>
</g>
</svg>
