<?xml version="1.0" encoding="UTF-8"?>
<svg xmlns="http://www.w3.org/2000/svg" xmlns:xlink="http://www.w3.org/1999/xlink" width="1764" height="1608" viewBox="0 0 1764 1608">
<rect x="-176.4" y="-160.8" width="2116.8" height="1929.6" fill="rgb(13.72549%, 15.294118%, 18.039216%)" fill-opacity="1"/>
<path fill-rule="nonzero" fill="rgb(10%, 10%, 10%)" fill-opacity="1" d="M 50 150 L 1714 150 L 1714 172.5 L 50 172.5 Z M 50 150 "/>
<path fill-rule="nonzero" fill="rgb(10%, 10%, 10%)" fill-opacity="1" d="M 50 172 L 1714 172 L 1714 194.5 L 50 194.5 Z M 50 172 "/>
<path fill-rule="nonzero" fill="rgb(10%, 10%, 10%)" fill-opacity="1" d="M 50 194 L 1714 194 L 1714 216.5 L 50 216.5 Z M 50 194 "/>
<path fill-rule="nonzero" fill="rgb(10%, 10%, 10%)" fill-opacity="1" d="M 50 216 L 1714 216 L 1714 238.5 L 50 238.5 Z M 50 216 "/>
<path fill-rule="nonzero" fill="rgb(10%, 10%, 10%)" fill-opacity="1" d="M 50 238 L 1714 238 L 1714 260.5 L 50 260.5 Z M 50 238 "/>
<path fill-rule="nonzero" fill="rgb(10%, 10%, 10%)" fill-opacity="1" d="M 50 260 L 1714 260 L 1714 282.5 L 50 282.5 Z M 50 260 "/>
<path fill-rule="nonzero" fill="rgb(10%, 10%, 10%)" fill-opacity="1" d="M 50 282 L 1714 282 L 1714 304.5 L 50 304.5 Z M 50 282 "/>
<path fill-rule="nonzero" fill="rgb(10%, 10%, 10%)" fill-opacity="1" d="M 50 304 L 1714 304 L 1714 326.5 L 50 326.5 Z M 50 304 "/>
<path fill-rule="nonzero" fill="rgb(10%, 10%, 10%)" fill-opacity="1" d="M 50 326 L 1714 326 L 1714 348.5 L 50 348.5 Z M 50 326 "/>
<path fill-rule="nonzero" fill="rgb(10%, 10%, 10%)" fill-opacity="1" d="M 50 348 L 1714 348 L 1714 370.5 L 50 370.5 Z M 50 348 "/>
<path fill-rule="nonzero" fill="rgb(10%, 10%, 10%)" fill-opacity="1" d="M 50 370 L 1714 370 L 1714 392.5 L 50 392.5 Z M 50 370 "/>
<path fill-rule="nonzero" fill="rgb(10%, 10%, 10%)" fill-opacity="1" d="M 50 392 L 1714 392 L 1714 414.5 L 50 414.5 Z M 50 392 "/>
<path fill-rule="nonzero" fill="rgb(10%, 10%, 10%)" fill-opacity="1" d="M 50 414 L 1714 414 L 1714 436.5 L 50 436.5 Z M 50 414 "/>
<path fill-rule="nonzero" fill="rgb(10%, 10%, 10%)" fill-opacity="1" d="M 50 436 L 1714 436 L 1714 458.5 L 50 458.5 Z M 50 436 "/>
<path fill-rule="nonzero" fill="rgb(10%, 10%, 10%)" fill-opacity="1" d="M 50 458 L 1714 458 L 1714 480.5 L 50 480.5 Z M 50 458 "/>
<path fill-rule="nonzero" fill="rgb(10%, 10%, 10%)" fill-opacity="1" d="M 50 480 L 1714 480 L 1714 502.5 L 50 502.5 Z M 50 480 "/>
<path fill-rule="nonzero" fill="rgb(10%, 10%, 10%)" fill-opacity="1" d="M 50 502 L 1714 502 L 1714 524.5 L 50 524.5 Z M 50 502 "/>
<path fill-rule="nonzero" fill="rgb(10%, 10%, 10%)" fill-opacity="1" d="M 50 524 L 1714 524 L 1714 546.5 L 50 546.5 Z M 50 524 "/>
<path fill-rule="nonzero" fill="rgb(10%, 10%, 10%)" fill-opacity="1" d="M 50 546 L 1714 546 L 1714 568.5 L 50 568.5 Z M 50 546 "/>
<path fill-rule="nonzero" fill="rgb(10%, 10%, 10%)" fill-opacity="1" d="M 50 568 L 1714 568 L 1714 590.5 L 50 590.5 Z M 50 568 "/>
<path fill-rule="nonzero" fill="rgb(10%, 10%, 10%)" fill-opacity="1" d="M 50 590 L 1714 590 L 1714 612.5 L 50 612.5 Z M 50 590 "/>
<path fill-rule="nonzero" fill="rgb(10%, 10%, 10%)" fill-opacity="1" d="M 50 612 L 1714 612 L 1714 634.5 L 50 634.5 Z M 50 612 "/>
<path fill-rule="nonzero" fill="rgb(10%, 10%, 10%)" fill-opacity="1" d="M 50 634 L 1714 634 L 1714 656.5 L 50 656.5 Z M 50 634 "/>
<path fill-rule="nonzero" fill="rgb(10%, 10%, 10%)" fill-opacity="1" d="M 50 656 L 1714 656 L 1714 678.5 L 50 678.5 Z M 50 656 "/>
<path fill-rule="nonzero" fill="rgb(10%, 10%, 10%)" fill-opacity="1" d="M 50 678 L 1714 678 L 1714 700.5 L 50 700.5 Z M 50 678 "/>
<path fill-rule="nonzero" fill="rgb(10%, 10%, 10%)" fill-opacity="1" d="M 50 700 L 1714 700 L 1714 722.5 L 50 722.5 Z M 50 700 "/>
<path fill-rule="nonzero" fill="rgb(10%, 10%, 10%)" fill-opacity="1" d="M 50 722 L 1714 722 L 1714 744.5 L 50 744.5 Z M 50 722 "/>
<path fill-rule="nonzero" fill="rgb(10%, 10%, 10%)" fill-opacity="1" d="M 50 744 L 1714 744 L 1714 766.5 L 50 766.5 Z M 50 744 "/>
<path fill-rule="nonzero" fill="rgb(10%, 10%, 10%)" fill-opacity="1" d="M 50 766 L 1714 766 L 1714 788.5 L 50 788.5 Z M 50 766 "/>
<path fill-rule="nonzero" fill="rgb(10%, 10%, 10%)" fill-opacity="1" d="M 50 788 L 1714 788 L 1714 810.5 L 50 810.5 Z M 50 788 "/>
<path fill-rule="nonzero" fill="rgb(10%, 10%, 10%)" fill-opacity="1" d="M 50 810 L 1714 810 L 1714 832.5 L 50 832.5 Z M 50 810 "/>
<path fill-rule="nonzero" fill="rgb(10%, 10%, 10%)" fill-opacity="1" d="M 50 832 L 1714 832 L 1714 854.5 L 50 854.5 Z M 50 832 "/>
<path fill-rule="nonzero" fill="rgb(10%, 10%, 10%)" fill-opacity="1" d="M 50 854 L 1714 854 L 1714 876.5 L 50 876.5 Z M 50 854 "/>
<path fill-rule="nonzero" fill="rgb(10%, 10%, 10%)" fill-opacity="1" d="M 50 876 L 1714 876 L 1714 898.5 L 50 898.5 Z M 50 876 "/>
<path fill-rule="nonzero" fill="rgb(10%, 10%, 10%)" fill-opacity="1" d="M 50 898 L 1714 898 L 1714 920.5 L 50 920.5 Z M 50 898 "/>
<path fill-rule="nonzero" fill="rgb(10%, 10%, 10%)" fill-opacity="1" d="M 50 920 L 1714 920 L 1714 942.5 L 50 942.5 Z M 50 920 "/>
<path fill-rule="nonzero" fill="rgb(10%, 10%, 10%)" fill-opacity="1" d="M 50 942 L 1714 942 L 1714 964.5 L 50 964.5 Z M 50 942 "/>
<path fill-rule="nonzero" fill="rgb(10%, 10%, 10%)" fill-opacity="1" d="M 50 964 L 1714 964 L 1714 986.5 L 50 986.5 Z M 50 964 "/>
<path fill-rule="nonzero" fill="rgb(10%, 10%, 10%)" fill-opacity="1" d="M 50 986 L 1714 986 L 1714 1008.5 L 50 1008.5 Z M 50 986 "/>
<path fill-rule="nonzero" fill="rgb(10%, 10%, 10%)" fill-opacity="1" d="M 50 1008 L 1714 1008 L 1714 1030.5 L 50 1030.5 Z M 50 1008 "/>
<path fill-rule="nonzero" fill="rgb(10%, 10%, 10%)" fill-opacity="1" d="M 50 1030 L 1714 1030 L 1714 1052.5 L 50 1052.5 Z M 50 1030 "/>
<path fill-rule="nonzero" fill="rgb(10%, 10%, 10%)" fill-opacity="1" d="M 50 1052 L 1714 1052 L 1714 1074.5 L 50 1074.5 Z M 50 1052 "/>
<path fill-rule="nonzero" fill="rgb(10%, 10%, 10%)" fill-opacity="1" d="M 50 1074 L 1714 1074 L 1714 1096.5 L 50 1096.5 Z M 50 1074 "/>
<path fill-rule="nonzero" fill="rgb(10%, 10%, 10%)" fill-opacity="1" d="M 50 1096 L 1714 1096 L 1714 1118.5 L 50 1118.5 Z M 50 1096 "/>
<path fill-rule="nonzero" fill="rgb(10%, 10%, 10%)" fill-opacity="1" d="M 50 1118 L 1714 1118 L 1714 1140.5 L 50 1140.5 Z M 50 1118 "/>
<path fill-rule="nonzero" fill="rgb(10%, 10%, 10%)" fill-opacity="1" d="M 50 1140 L 1714 1140 L 1714 1162.5 L 50 1162.5 Z M 50 1140 "/>
<path fill-rule="nonzero" fill="rgb(10%, 10%, 10%)" fill-opacity="1" d="M 50 1162 L 1714 1162 L 1714 1184.5 L 50 1184.5 Z M 50 1162 "/>
<path fill-rule="nonzero" fill="rgb(10%, 10%, 10%)" fill-opacity="1" d="M 50 1184 L 1714 1184 L 1714 1206.5 L 50 1206.5 Z M 50 1184 "/>
<path fill-rule="nonzero" fill="rgb(10%, 10%, 10%)" fill-opacity="1" d="M 50 1206 L 1714 1206 L 1714 1228.5 L 50 1228.5 Z M 50 1206 "/>
<path fill-rule="nonzero" fill="rgb(10%, 10%, 10%)" fill-opacity="1" d="M 50 1228 L 1714 1228 L 1714 1250.5 L 50 1250.5 Z M 50 1228 "/>
<path fill-rule="nonzero" fill="rgb(10%, 10%, 10%)" fill-opacity="1" d="M 50 1250 L 1714 1250 L 1714 1272.5 L 50 1272.5 Z M 50 1250 "/>
<path fill-rule="nonzero" fill="rgb(10%, 10%, 10%)" fill-opacity="1" d="M 50 1272 L 1714 1272 L 1714 1294.5 L 50 1294.5 Z M 50 1272 "/>
<path fill-rule="nonzero" fill="rgb(10%, 10%, 10%)" fill-opacity="1" d="M 50 1294 L 1714 1294 L 1714 1316.5 L 50 1316.5 Z M 50 1294 "/>
<path fill-rule="nonzero" fill="rgb(10%, 10%, 10%)" fill-opacity="1" d="M 50 1316 L 1714 1316 L 1714 1338.5 L 50 1338.5 Z M 50 1316 "/>
<path fill-rule="nonzero" fill="rgb(10%, 10%, 10%)" fill-opacity="1" d="M 50 1338 L 1714 1338 L 1714 1360.5 L 50 1360.5 Z M 50 1338 "/>
<path fill-rule="nonzero" fill="rgb(10%, 10%, 10%)" fill-opacity="1" d="M 50 1360 L 1714 1360 L 1714 1382.5 L 50 1382.5 Z M 50 1360 "/>
<path fill-rule="nonzero" fill="rgb(10%, 10%, 10%)" fill-opacity="1" d="M 50 1382 L 1714 1382 L 1714 1404.5 L 50 1404.5 Z M 50 1382 "/>
<path fill-rule="nonzero" fill="rgb(10%, 10%, 10%)" fill-opacity="1" d="M 50 1404 L 1714 1404 L 1714 1426.5 L 50 1426.5 Z M 50 1404 "/>
<path fill-rule="nonzero" fill="rgb(10%, 10%, 10%)" fill-opacity="1" d="M 50 1426 L 1714 1426 L 1714 1448.5 L 50 1448.5 Z M 50 1426 "/>
<path fill-rule="nonzero" fill="rgb(10%, 10%, 10%)" fill-opacity="1" d="M 50 1448 L 1714 1448 L 1714 1470.5 L 50 1470.5 Z M 50 1448 "/>
<path fill-rule="nonzero" fill="rgb(10%, 10%, 10%)" fill-opacity="1" d="M 50 1470 L 1714 1470 L 1714 1492.5 L 50 1492.5 Z M 50 1470 "/>
<path fill-rule="nonzero" fill="rgb(10%, 10%, 10%)" fill-opacity="1" d="M 50 1492 L 1714 1492 L 1714 1514.5 L 50 1514.5 Z M 50 1492 "/>
<path fill-rule="nonzero" fill="rgb(10%, 10%, 10%)" fill-opacity="1" d="M 50 1514 L 1714 1514 L 1714 1536.5 L 50 1536.5 Z M 50 1514 "/>
<path fill-rule="nonzero" fill="rgb(94.509804%, 29.803922%, 29.803922%)" fill-opacity="1" d="M 50 150 L 50 170 L 57 160 "/>
<path fill-rule="nonzero" fill="rgb(94.509804%, 29.803922%, 29.803922%)" fill-opacity="1" d="M 63 150.171875 L 63 170.171875 L 56 160.171875 "/>
<path fill-rule="nonzero" fill="rgb(94.509804%, 29.803922%, 29.803922%)" fill-opacity="1" d="M 50 156 L 63 156 L 63 164 L 50 164 Z M 50 156 "/>
<path fill-rule="nonzero" fill="rgb(94.509804%, 29.803922%, 29.803922%)" fill-opacity="1" d="M 50 172 L 50 192 L 57 182 "/>
<path fill-rule="nonzero" fill="rgb(94.509804%, 29.803922%, 29.803922%)" fill-opacity="1" d="M 1714 172 L 1714 192 L 1707 182 "/>
<path fill-rule="nonzero" fill="rgb(94.509804%, 29.803922%, 29.803922%)" fill-opacity="1" d="M 50 178 L 1714 178 L 1714 186 L 50 186 Z M 50 178 "/>
</svg>
